<?xml version="1.0" encoding="UTF-8"?>
<svg id="Layer_1" xmlns="http://www.w3.org/2000/svg" version="1.1" viewBox="0 0 1024 1024">
  <!-- Generator: Adobe Illustrator 29.8.2, SVG Export Plug-In . SVG Version: 2.1.1 Build 3)  -->
  <defs>
    <style>
      .st0 {
        fill: #9f1239;
      }

      .st1 {
        fill: #f3e7d3;
      }
    </style>
  </defs>
  <rect class="st0" x="-26.88" y="-26.88" width="1077.76" height="1077.76"/>
  <g id="FFNIGq">
    <g>
      <path class="st1" d="M469.28,268.41c2.64,1.69,6.27,2.02,9.94,5.27,25.75,22.76,26.14,54.43,21.74,86.47-3.4,63.57,4.66,132.09.08,195.08-.73,10.05-6.41,15.99-15.5,19.5-30.4-2.07-64.08,2.6-94.08,0-15.84-1.38-19.67-11.14-20.09-25.7-1.81-63.79-.29-129.95.36-193.85.21-20.81-4.44-49.18,9.26-66.98,11.49-14.92,27.12-15.52,29.72-37.28s-1.49-48.84.35-71.79c-.51-3.35-3.68-4.11-5.24-7.75-2.3-5.36-.88-19.92.41-25.95.25-1.16,1.49-4.18,2.51-4.73,1.59-.86,12.92-1.89,15.71-2.04,9.45-.51,19.53.23,29.08.09,3.89-.06,6.62-2.55,10.4.52,4.67,3.79,8.22,29.61,4.13,34.01-1.98,2.13-5.84.59-6.08,3.92,1.46,22.34-1.91,47-.02,69.05.34,4.02,4.36,20.3,7.32,22.19Z"/>
      <polygon class="st1" points="529.5 641.68 550.5 723.68 569.05 641.73 601 642.68 601 778.68 579 778.68 579.99 685.69 555.39 779.75 544.88 779.1 521 691.18 521 778.68 498 778.68 498 641.68 529.5 641.68"/>
      <path class="st1" d="M532.24,276.92c1-.86,14.58-2.15,17.21-2.28,24.02-1.23,55.05-1.21,79.08,0,4.72.24,9.76,1.67,14.77,1.23,1.73.52,2.07,1.84,2.74,3.26,5.75,12.22,10.58,39.42,12.66,53.34,5.8,38.88,9.72,79.13-27.39,103.03-14.33,9.23-32.58,11.06-34.36,31.64-1.46,16.92-1.55,50.23,0,67.08,1,10.85,7.74,19.1,17.36,23.64,7.41,3.5,22.66,4.82,27.63,8.37,3.58,2.56,4.65,5.98.35,8.25l-106.06-.53c-9.14-9.41,13.46-11.11,19.55-12.98,17.16-5.28,24.89-12.03,26.25-30.75.92-12.64,1.83-55.75-.72-66.36-3.64-15.13-24.16-20.86-35.65-29.35-33.96-25.14-32.03-58.7-27.54-97.2,2.39-20.53,7.44-40.91,14.12-60.39ZM554.8,286.98c-7.4.74-9.85.66-13.34,7.66-9.15,18.38-16.37,66.17-13.19,86.27,11.33,71.72,110.57,71.31,121.61,3.15,3.47-21.4-4.26-68.77-12.69-89.07-3.09-7.44-5.82-7.66-13.7-8.3-18.06-1.46-50.76-1.51-68.68.28Z"/>
      <polygon class="st1" points="741 641.68 768 718.68 768 643.18 769.5 641.68 789.5 641.68 791 643.18 791 778.68 769 778.68 739 695.68 739 779.68 718 778.68 718 641.68 741 641.68"/>
      <polygon class="st1" points="342 641.68 342 698.68 369 698.68 369 641.68 391 641.68 391 778.68 369 778.68 369 719.68 342 719.68 342 778.68 319 778.68 320.5 641.68 342 641.68"/>
      <path class="st1" d="M619,778.68l26.05-136.95,26.51-.11,27.45,137.06h-22l-4-26.01-26.87.14-4.13,25.87h-23ZM668,730.68l-8.01-55-9.99,55h18Z"/>
      <path class="st1" d="M920,678.68h-21.5l-1.11-1.49c4.18-16.72-21.86-22.51-24.32-6.95-3.47,21.97,19.56,28.79,31.97,40.9,28.27,27.58,19.56,74.11-26.53,69.53-19.53-1.94-31.12-20.34-29.51-38.99h21.5l1.15,1.49c-1.27,12.49,5.34,18.42,17.79,16.45,6.83-1.08,8.95-10.4,8.48-16.3-1.77-22.07-44.23-31.95-47.81-62.24-3.45-29.19,14.52-43.13,42.38-40.38,18.7,1.84,29.11,20.44,27.51,37.99Z"/>
      <path class="st1" d="M296,684.68h-23v-14.5c0-3.63-5.77-8.08-9.48-8.52-8.82-1.04-13.75,2.77-14.56,11.48-1.77,18.81-1.41,54,0,73.08.81,10.91,6.49,16.38,17.76,12.66,2.71-.89,6.28-4.96,6.28-7.71v-14.5h23v17.5c0,4.1-5.56,13.34-8.49,16.51-19.93,21.55-57.81,9.11-60.49-20.53-1.87-20.66-1.51-57.09-.06-78.03,1.76-25.51,26.28-38.85,49.32-29.23,7.2,3,19.72,15.22,19.72,23.28v18.5Z"/>
      <polygon class="st1" points="480 662.68 456 662.68 456 778.68 435 778.68 435 662.68 411 662.68 411 641.68 478.5 641.68 480 643.18 480 662.68"/>
      <path class="st1" d="M126,641.68v116h34v19.5c0,.3,1.27.77,1,1.5h-57l-1-137h23Z"/>
      <rect class="st1" x="178.95" y="641.68" width="22.05" height="137"/>
      <path class="st1" d="M201.01,862.68l9.03-32.95,11.48.93,8.97,32.04,8.54-33.97,10.96-.04-13.88,52.41-10.98.45c-1.28-.83-6.72-25.35-8.19-29.32-.39-1.07-.42-2.4-1.94-2.55l-8.11,31.9-10.76-.04-14.18-52.39,10.55.52,8.49,33.01Z"/>
      <path class="st1" d="M647.09,874.6l5.95,6.58c-6.71,11.8-8-.43-11.73-1.39-3.46.45-6.31,2.35-9.92,2.77-37.47,4.44-38.66-57.09-.85-53.92,23.01,1.93,26.41,29.23,16.54,45.95ZM639.99,864.68c4.05-8.76,1.63-24.32-9.56-25.94-22.61-3.28-22.85,38.88,1.59,32.46,1.79-1.34.24-1.44-.54-2.5-1.68-2.27-3.72-4.38-5.4-6.67l5.42-6.34,8.49,8.98Z"/>
      <path class="st1" d="M298,828.68l10.58.92,19.42,31.08v-32c3.57.45,8.36-1.35,11,1.5v51.5l-10.92-.53-20.08-32.47v33h-10v-53Z"/>
      <path class="st1" d="M465.02,862.68c2.94,2.09,4.53-8.65,5-9l8.96,2.05c-.42,5.53-3.18,10.36-5.97,14.93l11.99,10.01-10.53,2.64-6.79-5.48c-22.73,16.03-46.81-7.19-22.77-26.78-6.19-8.61-5.84-21.71,6.68-23.27,20.12-2.51,21.42,18.03,6.43,26.41l7,8.49ZM452.71,835.86c-5.62,1.68-.67,11.31,1.72,10.79,1.54-.34,5.06-5.38,4.59-7.42l-2.02-3.05c-1.36-.69-2.84-.75-4.29-.32ZM449.02,858.69c-2.92,4.53-5.76,10.82.77,13.73,3.54,1.58,12.14-.17,9.24-4.28-1.01-1.43-8.58-10.5-10.01-9.46Z"/>
      <path class="st1" d="M745.74,828.92c11.33-1.9,21.74.64,27.47,11.06,10.84,19.73-.7,46.04-25.45,42.44-27.64-4.02-25.59-49.55-2.02-53.5ZM749.76,838.9c-16.43,2.37-16.56,36.22,5.68,32.71,16.08-2.54,14.37-35.6-5.68-32.71Z"/>
      <path class="st1" d="M819.5,829.68c15.13,2.51,15.14,26.77,1.52,32.5l11.98,19.49-12.01-.48c-4.55-2.19-7.44-21.1-15.99-18.51v19h-11v-52c7.75.9,18.11-1.23,25.5,0ZM804.99,853.69c22.05,3.04,21.6-18.36-.99-13.99l.99,13.99Z"/>
      <path class="st1" d="M711,829.68v35.5c0,3.51-4.01,11.65-7.06,13.94-7.32,5.51-23.66,5.15-29.95-1.93-1.72-1.93-4.99-10.71-4.99-13.01v-34.5h11v36.5c0,7,20,8.3,20-1v-35l1.46-1.26,9.54.76Z"/>
      <path class="st1" d="M393,829.68c-.37,3.29,1.24,7.62-1.5,10h-21.5v11h19v10h-19v11h23v10h-34v-52h34Z"/>
      <path class="st1" d="M833,642.68v25.5c0,4.23-8.18,16.75-9.08,21.92-2.42,3.38-10.31,1.01-13.91.57l7.98-21.51-6.98-.48v-27l22,1Z"/>
      <polygon class="st1" points="536 829.68 536 871.68 558 871.68 558 881.68 526 881.68 526 829.68 536 829.68"/>
      <polygon class="st1" points="586 829.68 586 881.68 575 881.68 575 830.18 576.46 828.93 586 829.68"/>
      <rect class="st1" x="266" y="829.68" width="11" height="52"/>
      <path class="st1" d="M557.5,367.68c10.93,1.23,24.98,7.32,36.47,9.53,16.21,3.12,29.84,2.77,46.03-.54-.72,27.17-22.91,46.43-49.45,48.05-31.36,1.91-54.25-27.03-52.54-57.05,6.24.5,13.39-.69,19.5,0Z"/>
    </g>
  </g>
</svg>
