<svg width="512" height="512" viewBox="0 0 512 512" fill="none" xmlns="http://www.w3.org/2000/svg">
<g filter="url(#filter0_d_42_57)">
<path d="M247.56 315.994C252.097 319.997 258.903 319.997 263.44 315.994L438.25 161.748C446.54 154.433 441.366 140.75 430.31 140.75H80.6899C69.6341 140.75 64.4603 154.433 72.7503 161.748L247.56 315.994Z" fill="#A42626"/>
<path d="M244 262H269V431H244V262Z" fill="#A42626"/>
<path d="M253.63 419.019C255.143 418.369 256.857 418.369 258.37 419.019L354.803 460.488C360.794 463.064 358.954 472 352.433 472H159.567C153.046 472 151.206 463.064 157.197 460.488L253.63 419.019Z" fill="#A42626"/>
<path d="M97.7812 120.156C98.8854 120.156 99.4375 120.625 99.4375 121.562C99.4375 121.938 99.2083 122.271 98.75 122.562C98.3125 122.854 97.5208 123 96.375 123H71V78.7812H86.9375V120.938H92.7812C94.0938 120.938 95.2188 120.812 96.1562 120.562C97.1146 120.292 97.6562 120.156 97.7812 120.156ZM111.875 84.1562C109.729 84.1562 108.052 83.6771 106.844 82.7188C105.635 81.7604 105.031 80.5 105.031 78.9375C105.031 77.625 105.698 76.5 107.031 75.5625C108.448 74.5625 109.948 74.0625 111.531 74.0625C113.115 74.0625 114.333 74.2188 115.188 74.5312C116.062 74.8438 116.802 75.25 117.406 75.75C118.615 76.7708 119.219 77.9583 119.219 79.3125C119.219 80.6667 118.531 81.8125 117.156 82.75C115.781 83.6875 114.021 84.1562 111.875 84.1562ZM105.312 89.625H118.75V123H105.312V89.625ZM141.5 121C142.479 121.188 143.458 121.281 144.438 121.281C145.438 121.281 146.396 121.208 147.312 121.062C148.25 120.896 149.135 120.667 149.969 120.375C151.74 119.75 153.167 118.958 154.25 118C155.021 117.333 155.583 117 155.938 117C156.729 117 157.125 117.354 157.125 118.062C157.125 118.771 156.479 119.615 155.188 120.594C152.188 122.594 148.583 123.594 144.375 123.594C138.896 123.594 134.469 121.948 131.094 118.656C127.781 115.406 126.125 111.188 126.125 106C126.125 101.083 127.885 97.0208 131.406 93.8125C134.906 90.6458 139.302 89.0625 144.594 89.0625C147.615 89.0625 150.521 89.6875 153.312 90.9375C155.438 91.8542 156.5 92.8021 156.5 93.7812C156.5 94.1979 156.375 94.5208 156.125 94.75C155.896 94.9583 155.635 95.0625 155.344 95.0625C154.906 95.0625 154.344 94.8229 153.656 94.3438C152.302 93.0521 150.292 92.1458 147.625 91.625C146.667 91.4375 145.615 91.3438 144.469 91.3438C143.323 91.3438 142.333 91.4271 141.5 91.5938V121ZM189.781 89.0625C197.115 89.0625 200.781 92.625 200.781 99.75V123H187.344V92.5938C186.969 92.3438 186.469 92.2188 185.844 92.2188C185.24 92.2188 184.604 92.3646 183.938 92.6562C183.271 92.9479 182.573 93.3542 181.844 93.875C180.281 95.0208 178.896 96.4583 177.688 98.1875V123H164.25V78.7812H177.688V94.9062C181.25 91.0104 185.281 89.0625 189.781 89.0625ZM223.844 123.594C215.677 123.594 211.594 119.865 211.594 112.406L211.562 91.9062L207.969 92.0625C206.844 92.0625 206.281 91.6354 206.281 90.7812C206.281 89.9271 206.885 89.5 208.094 89.5L211.094 89.625H211.562V84.7812L224.969 78.7812V89.625H229.156L232.125 89.5C233.354 89.5 233.969 89.9375 233.969 90.8125C233.969 91.2083 233.792 91.5208 233.438 91.75C233.104 91.9583 232.719 92.0625 232.281 92.0625L228.406 91.9062H224.969V121.281C227.406 121.24 229.438 120.542 231.062 119.188C231.833 118.604 232.375 117.854 232.688 116.938C233.021 116.021 233.312 115.438 233.562 115.188C233.833 114.917 234.146 114.781 234.5 114.781C234.854 114.781 235.156 114.927 235.406 115.219C235.656 115.49 235.781 115.823 235.781 116.219C235.781 116.594 235.677 117.021 235.469 117.5C235.26 117.958 234.948 118.448 234.531 118.969C233.594 120.135 232.51 121.062 231.281 121.75C229.052 122.979 226.573 123.594 223.844 123.594ZM277.312 98.25C277.354 98.75 277.375 99.25 277.375 99.75V123H263.969V92.6875C263.74 92.5833 263.469 92.5312 263.156 92.5312H262.156C260.531 92.5312 258.635 93.6458 256.469 95.875C255.802 96.5625 255.167 97.3229 254.562 98.1562V123H241.125V89.625H254.562V94.6562C258.083 90.9271 262.021 89.0625 266.375 89.0625C272 89.0625 275.469 91.1458 276.781 95.3125C278.573 93.25 280.542 91.6979 282.688 90.6562C284.854 89.5938 287.031 89.0625 289.219 89.0625C292.948 89.0625 295.708 89.9479 297.5 91.7188C299.292 93.4896 300.188 96.1667 300.188 99.75V123H286.781V92.6562C286.594 92.5729 286.125 92.5312 285.375 92.5312C284.625 92.5312 283.927 92.6771 283.281 92.9688C282.656 93.2396 282.01 93.625 281.344 94.125C279.885 95.1875 278.542 96.5625 277.312 98.25ZM331.344 120.938C328.677 122.708 325.719 123.594 322.469 123.594C318.156 123.594 314.698 122.51 312.094 120.344C309.385 118.115 308.031 115.021 308.031 111.062C308.031 107.562 309.375 104.688 312.062 102.438C314.812 100.167 318.427 99.0312 322.906 99.0312C325.906 99.0312 328.719 99.6042 331.344 100.75V92.1562C329.448 91.6146 327.771 91.3438 326.312 91.3438C324.875 91.3438 323.656 91.4062 322.656 91.5312C321.656 91.6562 320.708 91.8438 319.812 92.0938C317.875 92.6354 316.406 93.3646 315.406 94.2812C314.823 94.8229 314.292 95.0938 313.812 95.0938C313.333 95.0938 312.969 94.9792 312.719 94.75C312.469 94.5 312.344 94.2292 312.344 93.9375C312.344 93.6458 312.396 93.3854 312.5 93.1562C312.604 92.9062 312.802 92.6562 313.094 92.4062C313.719 91.8646 314.76 91.3229 316.219 90.7812C319.24 89.6354 322.271 89.0625 325.312 89.0625C334.562 89.0625 340.469 91.2708 343.031 95.6875C344.156 97.6458 344.719 100.219 344.719 103.406V123H331.344V120.938ZM331.344 103.188C328.719 101.917 326.104 101.281 323.5 101.281C323.083 101.281 322.688 101.312 322.312 101.375V121.25C322.417 121.271 322.531 121.281 322.656 121.281C322.781 121.281 322.906 121.281 323.031 121.281C325.885 121.281 328.656 120.271 331.344 118.25V103.188ZM377.625 93.0312C377.104 92.6979 376.542 92.5312 375.938 92.5312C375.333 92.5312 374.708 92.6771 374.062 92.9688C373.417 93.2396 372.74 93.625 372.031 94.125C370.552 95.1875 369.188 96.6042 367.938 98.375V123H354.5V89.625H367.938V94.9688C371.5 91.0312 375.531 89.0625 380.031 89.0625C387.385 89.0625 391.062 92.625 391.062 99.75V123H377.625V93.0312ZM405.562 97.4688C404.583 97.4688 404.094 97.0104 404.094 96.0938C404.094 95.7604 404.219 95.5417 404.469 95.4375C404.469 95.4375 404.844 95.2708 405.594 94.9375C406.656 94.4583 407.667 93.5208 408.625 92.125C409.042 91.5208 409.292 90.6875 409.375 89.625C408.312 90.3333 407.094 90.6875 405.719 90.6875C404.365 90.6875 403.26 90.5104 402.406 90.1562C401.573 89.7812 400.865 89.2917 400.281 88.6875C399.073 87.4583 398.469 86.0417 398.469 84.4375C398.469 82.7083 399.104 81.25 400.375 80.0625C401.688 78.8125 403.333 78.1875 405.312 78.1875C407.667 78.1875 409.552 78.9062 410.969 80.3438C412.302 81.7188 412.969 83.5104 412.969 85.7188C412.969 89.0729 411.885 92.0625 409.719 94.6875C408.573 96.0417 407.677 96.8438 407.031 97.0938C406.406 97.3438 405.917 97.4688 405.562 97.4688ZM418.5 118.812C418.5 118.5 418.604 118.219 418.812 117.969C419.042 117.698 419.333 117.562 419.688 117.562C420.042 117.562 420.333 117.667 420.562 117.875C420.562 117.875 420.823 118.115 421.344 118.594C423.51 120.49 426.542 121.438 430.438 121.438C433.062 121.438 434.75 120.896 435.5 119.812C435.708 119.521 435.812 119.229 435.812 118.938C435.812 118.625 435.75 118.333 435.625 118.062C435.521 117.771 435.281 117.427 434.906 117.031C434.531 116.615 434 116.125 433.312 115.562L430.562 113.344C426.021 109.802 422.906 106.927 421.219 104.719C419.677 102.698 418.906 100.635 418.906 98.5312C418.906 95.8854 420.125 93.6667 422.562 91.875C425.083 90 428.344 89.0625 432.344 89.0625C435.156 89.0625 437.375 89.3854 439 90.0312C440.625 90.6771 441.771 91.2708 442.438 91.8125C443.104 92.3333 443.438 92.8125 443.438 93.25C443.438 94.1458 443.083 94.5938 442.375 94.5938C442.042 94.5938 441.729 94.4792 441.438 94.25C441.167 94 440.615 93.5938 439.781 93.0312C438.948 92.4479 437.844 91.9896 436.469 91.6562C435.094 91.3229 433.812 91.1562 432.625 91.1562C431.438 91.1562 430.594 91.3438 430.094 91.7188C429.615 92.0938 429.375 92.4688 429.375 92.8438C429.375 93.1979 429.448 93.5417 429.594 93.875C429.74 94.1875 430.01 94.5625 430.406 95C431.323 96.0833 432.792 97.3646 434.812 98.8438C436.833 100.323 438.542 101.677 439.938 102.906C441.333 104.135 442.427 105.271 443.219 106.312C444.656 108.188 445.375 110.083 445.375 112C445.375 113.917 445.021 115.562 444.312 116.938C443.604 118.292 442.594 119.458 441.281 120.438C438.51 122.542 434.812 123.594 430.188 123.594C426.479 123.594 423.385 122.885 420.906 121.469C419.302 120.573 418.5 119.688 418.5 118.812Z" fill="#040100"/>
<path d="M251.859 297.891C254.508 300.236 258.492 300.236 261.141 297.891L377.344 194.991C382.168 190.719 379.146 182.75 372.703 182.75H140.297C133.854 182.75 130.832 190.719 135.656 194.991L251.859 297.891Z" fill="#040100"/>
</g>
<defs>
<filter id="filter0_d_42_57" x="-4" y="0" width="520" height="520" filterUnits="userSpaceOnUse" color-interpolation-filters="sRGB">
<feFlood flood-opacity="0" result="BackgroundImageFix"/>
<feColorMatrix in="SourceAlpha" type="matrix" values="0 0 0 0 0 0 0 0 0 0 0 0 0 0 0 0 0 0 127 0" result="hardAlpha"/>
<feOffset dy="4"/>
<feGaussianBlur stdDeviation="2"/>
<feComposite in2="hardAlpha" operator="out"/>
<feColorMatrix type="matrix" values="0 0 0 0 0 0 0 0 0 0 0 0 0 0 0 0 0 0 0.25 0"/>
<feBlend mode="normal" in2="BackgroundImageFix" result="effect1_dropShadow_42_57"/>
<feBlend mode="normal" in="SourceGraphic" in2="effect1_dropShadow_42_57" result="shape"/>
</filter>
</defs>
</svg>
