<svg width="1024" height="1024" viewBox="0 0 1024 1024" fill="none" xmlns="http://www.w3.org/2000/svg">
<g clip-path="url(#clip0_67_2)">
<path d="M1050.88 -26.8799H-26.8799V1050.88H1050.88V-26.8799Z" fill="#9F1239"/>
<path d="M469.28 268.41C471.92 270.1 475.55 270.43 479.22 273.68C504.97 296.44 505.36 328.11 500.96 360.15C497.56 423.72 505.62 492.24 501.04 555.23C500.31 565.28 494.63 571.22 485.54 574.73C455.14 572.66 421.46 577.33 391.46 574.73C375.62 573.35 371.79 563.59 371.37 549.03C369.56 485.24 371.08 419.08 371.73 355.18C371.94 334.37 367.29 306 380.99 288.2C392.48 273.28 408.11 272.68 410.71 250.92C413.31 229.16 409.22 202.08 411.06 179.13C410.55 175.78 407.38 175.02 405.82 171.38C403.52 166.02 404.94 151.46 406.23 145.43C406.48 144.27 407.72 141.25 408.74 140.7C410.33 139.84 421.66 138.81 424.45 138.66C433.9 138.15 443.98 138.89 453.53 138.75C457.42 138.69 460.15 136.2 463.93 139.27C468.6 143.06 472.15 168.88 468.06 173.28C466.08 175.41 462.22 173.87 461.98 177.2C463.44 199.54 460.07 224.2 461.96 246.25C462.3 250.27 466.32 266.55 469.28 268.44V268.41Z" fill="#F3E7D3"/>
<path d="M529.5 641.68L550.5 723.68L569.05 641.73L601 642.68V778.68H579L579.99 685.69L555.39 779.75L544.88 779.1L521 691.18V778.68H498V641.68H529.5Z" fill="#F3E7D3"/>
<path d="M532.24 276.92C533.24 276.06 546.82 274.77 549.45 274.64C573.47 273.41 604.5 273.43 628.53 274.64C633.25 274.88 638.29 276.31 643.3 275.87C645.03 276.39 645.37 277.71 646.04 279.13C651.79 291.35 656.62 318.55 658.7 332.47C664.5 371.35 668.42 411.6 631.31 435.5C616.98 444.73 598.73 446.56 596.95 467.14C595.49 484.06 595.4 517.37 596.95 534.22C597.95 545.07 604.69 553.32 614.31 557.86C621.72 561.36 636.97 562.68 641.94 566.23C645.52 568.79 646.59 572.21 642.29 574.48L536.23 573.95C527.09 564.54 549.69 562.84 555.78 560.97C572.94 555.69 580.67 548.94 582.03 530.22C582.95 517.58 583.86 474.47 581.31 463.86C577.67 448.73 557.15 443 545.66 434.51C511.7 409.37 513.63 375.81 518.12 337.31C520.51 316.78 525.56 296.4 532.24 276.92ZM554.8 286.98C547.4 287.72 544.95 287.64 541.46 294.64C532.31 313.02 525.09 360.81 528.27 380.91C539.6 452.63 638.84 452.22 649.88 384.06C653.35 362.66 645.62 315.29 637.19 294.99C634.1 287.55 631.37 287.33 623.49 286.69C605.43 285.23 572.73 285.18 554.81 286.97L554.8 286.98Z" fill="#F3E7D3"/>
<path d="M741 641.68L768 718.68V643.18L769.5 641.68H789.5L791 643.18V778.68H769L739 695.68V779.68L718 778.68V641.68H741Z" fill="#F3E7D3"/>
<path d="M342 641.68V698.68H369V641.68H391V778.68H369V719.68H342V778.68H319L320.5 641.68H342Z" fill="#F3E7D3"/>
<path d="M619 778.68L645.05 641.73L671.56 641.62L699.01 778.68H677.01L673.01 752.67L646.14 752.81L642.01 778.68H619.01H619ZM668 730.68L659.99 675.68L650 730.68H668Z" fill="#F3E7D3"/>
<path d="M920 678.68H898.5L897.39 677.19C901.57 660.47 875.53 654.68 873.07 670.24C869.6 692.21 892.63 699.03 905.04 711.14C933.31 738.72 924.6 785.25 878.51 780.67C858.98 778.73 847.39 760.33 849 741.68H870.5L871.65 743.17C870.38 755.66 876.99 761.59 889.44 759.62C896.27 758.54 898.39 749.22 897.92 743.32C896.15 721.25 853.69 711.37 850.11 681.08C846.66 651.89 864.63 637.95 892.49 640.7C911.19 642.54 921.6 661.14 920 678.69V678.68Z" fill="#F3E7D3"/>
<path d="M296 684.68H273V670.18C273 666.55 267.23 662.1 263.52 661.66C254.7 660.62 249.77 664.43 248.96 673.14C247.19 691.95 247.55 727.14 248.96 746.22C249.77 757.13 255.45 762.6 266.72 758.88C269.43 757.99 273 753.92 273 751.17V736.67H296V754.17C296 758.27 290.44 767.51 287.51 770.68C267.58 792.23 229.7 779.79 227.02 750.15C225.15 729.49 225.51 693.06 226.96 672.12C228.72 646.61 253.24 633.27 276.28 642.89C283.48 645.89 296 658.11 296 666.17V684.67V684.68Z" fill="#F3E7D3"/>
<path d="M480 662.68H456V778.68H435V662.68H411V641.68H478.5L480 643.18V662.68Z" fill="#F3E7D3"/>
<path d="M126 641.68V757.68H160V777.18C160 777.48 161.27 777.95 161 778.68H104L103 641.68H126Z" fill="#F3E7D3"/>
<path d="M201 641.68H178.95V778.68H201V641.68Z" fill="#F3E7D3"/>
<path d="M201.01 862.68L210.04 829.73L221.52 830.66L230.49 862.7L239.03 828.73L249.99 828.69L236.11 881.1L225.13 881.55C223.85 880.72 218.41 856.2 216.94 852.23C216.55 851.16 216.52 849.83 215 849.68L206.89 881.58L196.13 881.54L181.95 829.15L192.5 829.67L200.99 862.68H201.01Z" fill="#F3E7D3"/>
<path d="M647.09 874.6L653.04 881.18C646.33 892.98 645.04 880.75 641.31 879.79C637.85 880.24 635 882.14 631.39 882.56C593.92 887 592.73 825.47 630.54 828.64C653.55 830.57 656.95 857.87 647.08 874.59L647.09 874.6ZM639.99 864.68C644.04 855.92 641.62 840.36 630.43 838.74C607.82 835.46 607.58 877.62 632.02 871.2C633.81 869.86 632.26 869.76 631.48 868.7C629.8 866.43 627.76 864.32 626.08 862.03L631.5 855.69L639.99 864.67V864.68Z" fill="#F3E7D3"/>
<path d="M298 828.68L308.58 829.6L328 860.68V828.68C331.57 829.13 336.36 827.33 339 830.18V881.68L328.08 881.15L308 848.68V881.68H298V828.68Z" fill="#F3E7D3"/>
<path d="M465.02 862.68C467.96 864.77 469.55 854.03 470.02 853.68L478.98 855.73C478.56 861.26 475.8 866.09 473.01 870.66L485 880.67L474.47 883.31L467.68 877.83C444.95 893.86 420.87 870.64 444.91 851.05C438.72 842.44 439.07 829.34 451.59 827.78C471.71 825.27 473.01 845.81 458.02 854.19L465.02 862.68ZM452.71 835.86C447.09 837.54 452.04 847.17 454.43 846.65C455.97 846.31 459.49 841.27 459.02 839.23L457 836.18C455.64 835.49 454.16 835.43 452.71 835.86ZM449.02 858.69C446.1 863.22 443.26 869.51 449.79 872.42C453.33 874 461.93 872.25 459.03 868.14C458.02 866.71 450.45 857.64 449.02 858.68V858.69Z" fill="#F3E7D3"/>
<path d="M745.74 828.92C757.07 827.02 767.48 829.56 773.21 839.98C784.05 859.71 772.51 886.02 747.76 882.42C720.12 878.4 722.17 832.87 745.74 828.92ZM749.76 838.9C733.33 841.27 733.2 875.12 755.44 871.61C771.52 869.07 769.81 836.01 749.76 838.9Z" fill="#F3E7D3"/>
<path d="M819.5 829.68C834.63 832.19 834.64 856.45 821.02 862.18L833 881.67L820.99 881.19C816.44 879 813.55 860.09 805 862.68V881.68H794V829.68C801.75 830.58 812.11 828.45 819.5 829.68ZM804.99 853.69C827.04 856.73 826.59 835.33 804 839.7L804.99 853.69Z" fill="#F3E7D3"/>
<path d="M711 829.68V865.18C711 868.69 706.99 876.83 703.94 879.12C696.62 884.63 680.28 884.27 673.99 877.19C672.27 875.26 669 866.48 669 864.18V829.68H680V866.18C680 873.18 700 874.48 700 865.18V830.18L701.46 828.92L711 829.68Z" fill="#F3E7D3"/>
<path d="M393 829.68C392.63 832.97 394.24 837.3 391.5 839.68H370V850.68H389V860.68H370V871.68H393V881.68H359V829.68H393Z" fill="#F3E7D3"/>
<path d="M833 642.68V668.18C833 672.41 824.82 684.93 823.92 690.1C821.5 693.48 813.61 691.11 810.01 690.67L817.99 669.16L811.01 668.68V641.68L833.01 642.68H833Z" fill="#F3E7D3"/>
<path d="M536 829.68V871.68H558V881.68H526V829.68H536Z" fill="#F3E7D3"/>
<path d="M586 829.68V881.68H575V830.18L576.46 828.93L586 829.68Z" fill="#F3E7D3"/>
<path d="M277 829.68H266V881.68H277V829.68Z" fill="#F3E7D3"/>
<path d="M557.5 367.68C568.43 368.91 582.48 375 593.97 377.21C610.18 380.33 623.81 379.98 640 376.67C639.28 403.84 617.09 423.1 590.55 424.72C559.19 426.63 536.3 397.69 538.01 367.67C544.25 368.17 551.4 366.98 557.51 367.67L557.5 367.68Z" fill="#F3E7D3"/>
</g>
<defs>
<clipPath id="clip0_67_2">
<rect width="1024" height="1024" rx="85" fill="white"/>
</clipPath>
</defs>
</svg>
